<svg id="Layer_2" data-name="Layer 2" xmlns="http://www.w3.org/2000/svg" viewBox="0 0 491.33 491.33">
    <defs>
        <style>
            .cls-1 {
                fill:#231f20;
            }
            .cls-2 {
                fill:#fff;
            }
        </style>
    </defs>
    <title>hint</title>
    <path class="cls-1" d="M255.23,10.33C119.55,10.33,9.57,120.32,9.57,256s110,245.67,245.66,245.67S500.9,391.68,500.9,
    256,390.91,10.33,255.23,10.33Zm2.33,406.33c-23.78,0-43.83-20.05-43.83-43.83S233.78,329,257.56,329,301.4,349,301.4,
    372.83,281.35,416.66,257.56,416.66Zm26.59-139.91c0,7.93,3.26,14.93,7,18.66l-62,15.85c-8.86-10.72-14.46-25.18-14.46-42.9,
    0-52.7,60.63-60.63,60.63-84,0-10.26-7.47-18.19-27.52-18.19-17.72,0-35.91,9.33-49,24.26L154,139.17c25.65-28.91,
    64.36-43.83,102.6-43.83,61.56,0,99.8,29.84,99.8,74.62C356.43,236.65,284.15,241.78,284.15,276.75Z" 
    transform="translate(-9.57 -10.33)"/>
    <rect class="cls-2" x="259.62" y="-5.65" width="15.73" height="495.5" rx="3.33" ry="3.33" 
    transform="translate(-102.41 249.71) rotate(-45)"/>
</svg>
