<svg id="Layer_1" data-name="Layer 1" xmlns="http://www.w3.org/2000/svg" viewBox="0 0 394.29 38.64"><defs><style>.cls-1{fill:#231f20;}</style></defs><title>logo</title><path class="cls-1" d="M50.8,61.83l-5.65-23.4-5.66,23.4H29.3L18.6,24.48H29.41L35.07,49.4l6.38-24.92h7.39L55.23,49.4l5.6-24.92H71.69L61,61.83Z" transform="translate(-18.6 -23.87)"/><path class="cls-1" d="M99.86,61.83v-15H84.35v15H74.71V24.48h9.64v14H99.86V24.48h9.63V61.83Z" transform="translate(-18.6 -23.87)"/><path class="cls-1" d="M141.58,61.83l-1.85-5.37H125l-1.85,5.37H112.23l14.06-37.35h12.09L152.5,61.83ZM132.34,34l-4.76,14.06h9.52Z" transform="translate(-18.6 -23.87)"/><path class="cls-1" d="M160.11,61.83V32.88H149.64v-8.4h30.52v8.4H169.75V61.83Z" transform="translate(-18.6 -23.87)"/><path class="cls-1" d="M188.11,41.79l-3.58-2.92a10.66,10.66,0,0,0,4.76-5.37,3.9,3.9,0,0,1-1.29.22,4.38,4.38,0,0,1-4.37-4.65,5.17,5.17,0,0,1,5.15-5.15c3,0,5.72,2.35,5.72,6.5C194.5,35,192,39,188.11,41.79Z" transform="translate(-18.6 -23.87)"/><path class="cls-1" d="M197.07,56.57l5.1-7.22a16.91,16.91,0,0,0,11.93,4.92c3.3,0,5.32-1.28,5.32-3.08,0-5.09-21.17-1-21.17-15.4,0-6.27,5.32-11.87,14.89-11.87a22.77,22.77,0,0,1,15.18,5.21L223.06,36a17.59,17.59,0,0,0-10.92-3.87c-2.8,0-4,1.12-4,2.69,0,4.76,21.11,1.29,21.11,15.18,0,7.5-5.54,12.49-15.56,12.49C206.09,62.51,200.82,60.15,197.07,56.57Z" transform="translate(-18.6 -23.87)"/><path class="cls-1" d="M240.47,48.17c0-7.56,11.76-7.9,11.76-15.68,0-3.7-3-6.89-8.46-6.89s-8.34,2.19-10.69,5.49l-1.29-1.18a13.79,13.79,0,0,1,12-6c6.56,0,10.42,4,10.42,8.57,0,8.68-12,9.46-12,15.68a4,4,0,0,0,1.85,3l-1.07,1.29A5.26,5.26,0,0,1,240.47,48.17Zm.45,12.32a1.85,1.85,0,1,1,1.85,1.85A1.85,1.85,0,0,1,240.92,60.49Z" transform="translate(-18.6 -23.87)"/><path class="cls-1" d="M290,61.83l-9.69-34-9.68,34h-2.13L257.89,24.48h2l9.74,34.67,9.8-34.67h1.91l9.79,34.67,9.75-34.67h2L292.16,61.83Z" transform="translate(-18.6 -23.87)"/><path class="cls-1" d="M306.72,43.19c0-10.81,6.89-19.32,17.75-19.32s17.75,8.51,17.75,19.32-6.94,19.32-17.75,19.32S306.72,54,306.72,43.19Zm33.54,0c0-10.25-6.21-17.64-15.79-17.64s-15.79,7.39-15.79,17.64,6.1,17.64,15.79,17.64S340.26,53.32,340.26,43.19Z" transform="translate(-18.6 -23.87)"/><path class="cls-1" d="M372.91,61.83,361.54,45.71h-9V61.83h-1.79V24.48h12.88c6.05,0,11,3.75,11,10.59s-5,10.64-11,10.64l11.54,16.12Zm-.17-26.76c0-5.16-3.58-8.91-9.07-8.91H352.58V44h11.09C369.16,44,372.74,40.22,372.74,35.07Z" transform="translate(-18.6 -23.87)"/><path class="cls-1" d="M383.21,61.83V24.48H394.3c11.59,0,18.59,8.74,18.59,18.71s-7,18.64-18.59,18.64Zm27.72-18.64c0-9.36-6-17-16.63-17H385v34h9.29C404.89,60.15,410.93,52.65,410.93,43.19Z" transform="translate(-18.6 -23.87)"/></svg>