<svg id="Layer_1" data-name="Layer 1" xmlns="http://www.w3.org/2000/svg" viewBox="0 0 409.1 74.2"><title>intro</title><path d="M20.42,18.79a7.64,7.64,0,0,1,7.7-7.7h1.7a7.91,7.91,0,0,1,7,4l18.6,30.3L74.12,15a7.54,7.54,0,0,1,6.9-3.9h1.7a7.64,7.64,0,0,1,7.7,7.7v55.6a7.65,7.65,0,1,1-15.3,0V39.49l-13.5,20.8c-1.6,2.4-3.6,3.9-6.4,3.9s-4.8-1.5-6.4-3.9l-13.3-20.5v34.8a7.51,7.51,0,0,1-7.6,7.5,7.43,7.43,0,0,1-7.5-7.5Z" transform="translate(-18.92 -9.39)" style="fill:none;stroke:#231f20;stroke-width:3px"/><path d="M107.22,18.79a7.64,7.64,0,0,1,7.7-7.7h1.6c3.7,0,5.9,1.8,8,4.5l29.7,39V18.49a7.6,7.6,0,1,1,15.2,0v55.7a7.64,7.64,0,0,1-7.7,7.7h-.5c-3.7,0-5.9-1.8-8-4.5L122.42,37v37.5a7.6,7.6,0,0,1-15.2,0Z" transform="translate(-18.92 -9.39)" style="fill:none;stroke:#231f20;stroke-width:3px"/><path d="M186.22,19.19a7.64,7.64,0,0,1,7.7-7.7h19.6c22,0,37.2,15.1,37.2,34.8v.2c0,19.7-15.2,35-37.2,35h-19.6a7.64,7.64,0,0,1-7.7-7.7Zm27.3,48.4c12.6,0,21.1-8.5,21.1-20.9v-.2c0-12.4-8.5-21.1-21.1-21.1h-11.9v42.2Z" transform="translate(-18.92 -9.39)" style="fill:none;stroke:#231f20;stroke-width:3px"/><path d="M264.42,73.79V19.19a7.64,7.64,0,0,1,7.7-7.7h38.8a6.91,6.91,0,0,1,6.9,6.9,6.83,6.83,0,0,1-6.9,6.8h-31.2v14.2h26.7a6.91,6.91,0,0,1,6.9,6.9,6.83,6.83,0,0,1-6.9,6.8h-26.7v14.7h31.7a6.91,6.91,0,0,1,6.9,6.9,6.83,6.83,0,0,1-6.9,6.8h-39.3A7.64,7.64,0,0,1,264.42,73.79Z" transform="translate(-18.92 -9.39)" style="fill:none;stroke:#231f20;stroke-width:3px"/><path d="M331.42,18.79a7.64,7.64,0,0,1,7.7-7.7h1.6c3.7,0,5.9,1.8,8,4.5l29.7,39V18.49a7.6,7.6,0,0,1,15.2,0v55.7a7.64,7.64,0,0,1-7.7,7.7h-.5c-3.7,0-5.9-1.8-8-4.5L346.62,37v37.5a7.6,7.6,0,0,1-15.2,0Z" transform="translate(-18.92 -9.39)" style="fill:none;stroke:#231f20;stroke-width:3px"/><path d="M411.12,18.59a7.7,7.7,0,1,1,15.4,0v55.8a7.7,7.7,0,1,1-15.4,0Z" transform="translate(-18.92 -9.39)" style="fill:none;stroke:#231f20;stroke-width:3px"/></svg>